<mxfile host="app.diagrams.net" agent="Mozilla/5.0 (Windows NT 10.0; Win64; x64; rv:137.0) Gecko/20100101 Firefox/137.0" version="25.0.3">
  <diagram name="Page-1" id="3InMZS2To7VZbD90NDdh">
    <mxGraphModel grid="1" page="1" gridSize="10" guides="1" tooltips="1" connect="1" arrows="1" fold="1" pageScale="1" pageWidth="850" pageHeight="1100" math="0" shadow="0">
      <root>
        <mxCell id="0" />
        <mxCell id="1" parent="0" />
        <mxCell id="X4VVf6SY0vySNThB5lVw-1" value="&lt;div&gt;Countries&lt;/div&gt;" style="rounded=0;whiteSpace=wrap;html=1;" vertex="1" parent="1">
          <mxGeometry x="340" y="320" width="120" height="60" as="geometry" />
        </mxCell>
        <mxCell id="X4VVf6SY0vySNThB5lVw-123" style="edgeStyle=orthogonalEdgeStyle;rounded=0;orthogonalLoop=1;jettySize=auto;html=1;entryX=1;entryY=0.25;entryDx=0;entryDy=0;endArrow=ERmandOne;endFill=0;startArrow=ERoneToMany;startFill=0;" edge="1" parent="1" source="X4VVf6SY0vySNThB5lVw-2" target="X4VVf6SY0vySNThB5lVw-1">
          <mxGeometry relative="1" as="geometry">
            <Array as="points">
              <mxPoint x="540" y="370" />
              <mxPoint x="540" y="335" />
            </Array>
          </mxGeometry>
        </mxCell>
        <mxCell id="X4VVf6SY0vySNThB5lVw-2" value="Parties" style="rounded=0;whiteSpace=wrap;html=1;" vertex="1" parent="1">
          <mxGeometry x="590" y="340" width="120" height="60" as="geometry" />
        </mxCell>
        <mxCell id="X4VVf6SY0vySNThB5lVw-29" style="edgeStyle=orthogonalEdgeStyle;rounded=0;orthogonalLoop=1;jettySize=auto;html=1;entryX=0.5;entryY=1;entryDx=0;entryDy=0;endArrow=ERmandOne;endFill=0;startArrow=ERoneToMany;startFill=0;" edge="1" parent="1" source="X4VVf6SY0vySNThB5lVw-3" target="X4VVf6SY0vySNThB5lVw-11">
          <mxGeometry relative="1" as="geometry" />
        </mxCell>
        <mxCell id="X4VVf6SY0vySNThB5lVw-37" style="edgeStyle=orthogonalEdgeStyle;rounded=0;orthogonalLoop=1;jettySize=auto;html=1;entryX=0;entryY=0.75;entryDx=0;entryDy=0;endArrow=ERmandOne;endFill=0;startArrow=ERoneToMany;startFill=0;" edge="1" parent="1" source="X4VVf6SY0vySNThB5lVw-3" target="X4VVf6SY0vySNThB5lVw-1">
          <mxGeometry relative="1" as="geometry" />
        </mxCell>
        <mxCell id="X4VVf6SY0vySNThB5lVw-3" value="Provinces" style="rounded=0;whiteSpace=wrap;html=1;" vertex="1" parent="1">
          <mxGeometry x="-20" y="410" width="120" height="60" as="geometry" />
        </mxCell>
        <mxCell id="X4VVf6SY0vySNThB5lVw-23" style="edgeStyle=orthogonalEdgeStyle;rounded=0;orthogonalLoop=1;jettySize=auto;html=1;endArrow=ERmandOne;endFill=0;startArrow=ERoneToMany;startFill=0;" edge="1" parent="1" source="X4VVf6SY0vySNThB5lVw-4">
          <mxGeometry relative="1" as="geometry">
            <mxPoint x="470" y="360" as="targetPoint" />
            <Array as="points">
              <mxPoint x="525" y="450" />
              <mxPoint x="525" y="360" />
              <mxPoint x="460" y="360" />
            </Array>
          </mxGeometry>
        </mxCell>
        <mxCell id="X4VVf6SY0vySNThB5lVw-4" value="Leaders" style="rounded=0;whiteSpace=wrap;html=1;" vertex="1" parent="1">
          <mxGeometry x="590" y="420" width="120" height="60" as="geometry" />
        </mxCell>
        <mxCell id="X4VVf6SY0vySNThB5lVw-25" style="edgeStyle=orthogonalEdgeStyle;rounded=0;orthogonalLoop=1;jettySize=auto;html=1;entryX=0.5;entryY=1;entryDx=0;entryDy=0;endArrow=ERmandOne;endFill=0;startArrow=ERoneToMany;startFill=0;" edge="1" parent="1" source="X4VVf6SY0vySNThB5lVw-5" target="X4VVf6SY0vySNThB5lVw-1">
          <mxGeometry relative="1" as="geometry" />
        </mxCell>
        <mxCell id="X4VVf6SY0vySNThB5lVw-125" style="edgeStyle=orthogonalEdgeStyle;rounded=0;orthogonalLoop=1;jettySize=auto;html=1;entryX=0.5;entryY=1;entryDx=0;entryDy=0;endArrow=ERoneToMany;endFill=0;startArrow=ERoneToMany;startFill=0;" edge="1" parent="1" source="X4VVf6SY0vySNThB5lVw-5" target="X4VVf6SY0vySNThB5lVw-5">
          <mxGeometry relative="1" as="geometry">
            <mxPoint x="470" y="510" as="targetPoint" />
            <Array as="points">
              <mxPoint x="480" y="460" />
              <mxPoint x="480" y="510" />
              <mxPoint x="400" y="510" />
            </Array>
          </mxGeometry>
        </mxCell>
        <mxCell id="X4VVf6SY0vySNThB5lVw-5" value="Focuses" style="rounded=0;whiteSpace=wrap;html=1;" vertex="1" parent="1">
          <mxGeometry x="340" y="430" width="120" height="60" as="geometry" />
        </mxCell>
        <mxCell id="X4VVf6SY0vySNThB5lVw-36" style="edgeStyle=orthogonalEdgeStyle;rounded=0;orthogonalLoop=1;jettySize=auto;html=1;entryX=0;entryY=0.25;entryDx=0;entryDy=0;endArrow=ERmandOne;endFill=0;startArrow=ERoneToMany;startFill=0;" edge="1" parent="1" source="X4VVf6SY0vySNThB5lVw-11" target="X4VVf6SY0vySNThB5lVw-1">
          <mxGeometry relative="1" as="geometry" />
        </mxCell>
        <mxCell id="X4VVf6SY0vySNThB5lVw-11" value="States" style="rounded=0;whiteSpace=wrap;html=1;" vertex="1" parent="1">
          <mxGeometry x="-20" y="310" width="120" height="60" as="geometry" />
        </mxCell>
        <mxCell id="X4VVf6SY0vySNThB5lVw-26" style="edgeStyle=orthogonalEdgeStyle;rounded=0;orthogonalLoop=1;jettySize=auto;html=1;entryX=0;entryY=0.5;entryDx=0;entryDy=0;endArrow=ERmandOne;endFill=0;startArrow=ERoneToMany;startFill=0;" edge="1" parent="1" source="X4VVf6SY0vySNThB5lVw-12" target="X4VVf6SY0vySNThB5lVw-11">
          <mxGeometry relative="1" as="geometry" />
        </mxCell>
        <mxCell id="X4VVf6SY0vySNThB5lVw-12" value="Buildings" style="rounded=0;whiteSpace=wrap;html=1;" vertex="1" parent="1">
          <mxGeometry x="-190" y="310" width="120" height="60" as="geometry" />
        </mxCell>
        <mxCell id="X4VVf6SY0vySNThB5lVw-27" style="edgeStyle=orthogonalEdgeStyle;rounded=0;orthogonalLoop=1;jettySize=auto;html=1;entryX=0;entryY=0.5;entryDx=0;entryDy=0;endArrow=ERmandOne;endFill=0;startArrow=ERoneToMany;startFill=0;" edge="1" parent="1" source="X4VVf6SY0vySNThB5lVw-13" target="X4VVf6SY0vySNThB5lVw-3">
          <mxGeometry relative="1" as="geometry" />
        </mxCell>
        <mxCell id="X4VVf6SY0vySNThB5lVw-13" value="ProvincesBuildings" style="rounded=0;whiteSpace=wrap;html=1;" vertex="1" parent="1">
          <mxGeometry x="-190" y="410" width="120" height="60" as="geometry" />
        </mxCell>
        <mxCell id="X4VVf6SY0vySNThB5lVw-24" style="edgeStyle=orthogonalEdgeStyle;rounded=0;orthogonalLoop=1;jettySize=auto;html=1;entryX=0.5;entryY=0;entryDx=0;entryDy=0;endArrow=ERone;endFill=0;startArrow=ERoneToMany;startFill=0;" edge="1" parent="1" source="X4VVf6SY0vySNThB5lVw-14" target="X4VVf6SY0vySNThB5lVw-1">
          <mxGeometry relative="1" as="geometry" />
        </mxCell>
        <mxCell id="X4VVf6SY0vySNThB5lVw-14" value="DiplomacyStates" style="rounded=0;whiteSpace=wrap;html=1;" vertex="1" parent="1">
          <mxGeometry x="340" y="180" width="120" height="60" as="geometry" />
        </mxCell>
        <mxCell id="X4VVf6SY0vySNThB5lVw-39" style="edgeStyle=orthogonalEdgeStyle;rounded=0;orthogonalLoop=1;jettySize=auto;html=1;entryX=0.5;entryY=0;entryDx=0;entryDy=0;endArrow=ERmandOne;endFill=0;startArrow=ERoneToMany;startFill=0;" edge="1" parent="1" source="X4VVf6SY0vySNThB5lVw-16" target="X4VVf6SY0vySNThB5lVw-18">
          <mxGeometry relative="1" as="geometry" />
        </mxCell>
        <mxCell id="X4VVf6SY0vySNThB5lVw-41" style="edgeStyle=orthogonalEdgeStyle;rounded=0;orthogonalLoop=1;jettySize=auto;html=1;entryX=0.5;entryY=1;entryDx=0;entryDy=0;endArrow=ERzeroToOne;endFill=0;startArrow=ERoneToMany;startFill=0;" edge="1" parent="1" source="X4VVf6SY0vySNThB5lVw-16" target="X4VVf6SY0vySNThB5lVw-17">
          <mxGeometry relative="1" as="geometry" />
        </mxCell>
        <mxCell id="X4VVf6SY0vySNThB5lVw-126" style="edgeStyle=orthogonalEdgeStyle;rounded=0;orthogonalLoop=1;jettySize=auto;html=1;entryX=0.75;entryY=1;entryDx=0;entryDy=0;exitX=0;exitY=0.5;exitDx=0;exitDy=0;endArrow=ERmandOne;endFill=0;startArrow=ERoneToMany;startFill=0;" edge="1" parent="1" source="X4VVf6SY0vySNThB5lVw-16" target="X4VVf6SY0vySNThB5lVw-3">
          <mxGeometry relative="1" as="geometry">
            <Array as="points">
              <mxPoint x="90" y="800" />
              <mxPoint x="90" y="490" />
              <mxPoint x="70" y="490" />
            </Array>
          </mxGeometry>
        </mxCell>
        <mxCell id="X4VVf6SY0vySNThB5lVw-16" value="Divisions" style="rounded=0;whiteSpace=wrap;html=1;" vertex="1" parent="1">
          <mxGeometry x="160" y="770" width="120" height="60" as="geometry" />
        </mxCell>
        <mxCell id="X4VVf6SY0vySNThB5lVw-42" style="edgeStyle=orthogonalEdgeStyle;rounded=0;orthogonalLoop=1;jettySize=auto;html=1;entryX=0.5;entryY=1;entryDx=0;entryDy=0;endArrow=ERzeroToOne;endFill=0;startArrow=ERoneToMany;startFill=0;" edge="1" parent="1" source="X4VVf6SY0vySNThB5lVw-17" target="X4VVf6SY0vySNThB5lVw-20">
          <mxGeometry relative="1" as="geometry" />
        </mxCell>
        <mxCell id="X4VVf6SY0vySNThB5lVw-46" style="edgeStyle=orthogonalEdgeStyle;rounded=0;orthogonalLoop=1;jettySize=auto;html=1;entryX=0.5;entryY=1;entryDx=0;entryDy=0;startArrow=ERoneToMany;startFill=0;endArrow=ERzeroToOne;endFill=0;" edge="1" parent="1" source="X4VVf6SY0vySNThB5lVw-17" target="X4VVf6SY0vySNThB5lVw-19">
          <mxGeometry relative="1" as="geometry" />
        </mxCell>
        <mxCell id="X4VVf6SY0vySNThB5lVw-17" value="Armies" style="rounded=0;whiteSpace=wrap;html=1;" vertex="1" parent="1">
          <mxGeometry x="160" y="660" width="120" height="60" as="geometry" />
        </mxCell>
        <mxCell id="X4VVf6SY0vySNThB5lVw-54" style="edgeStyle=orthogonalEdgeStyle;rounded=0;orthogonalLoop=1;jettySize=auto;html=1;endArrow=ERmandOne;endFill=0;startArrow=ERoneToMany;startFill=0;" edge="1" parent="1" source="X4VVf6SY0vySNThB5lVw-18">
          <mxGeometry relative="1" as="geometry">
            <mxPoint x="450" y="380" as="targetPoint" />
            <Array as="points">
              <mxPoint x="500" y="900" />
              <mxPoint x="500" y="390" />
              <mxPoint x="450" y="390" />
              <mxPoint x="450" y="380" />
            </Array>
          </mxGeometry>
        </mxCell>
        <mxCell id="X4VVf6SY0vySNThB5lVw-18" value="DivisionsTemplates" style="rounded=0;whiteSpace=wrap;html=1;" vertex="1" parent="1">
          <mxGeometry x="160" y="870" width="120" height="60" as="geometry" />
        </mxCell>
        <mxCell id="X4VVf6SY0vySNThB5lVw-19" value="Generals" style="rounded=0;whiteSpace=wrap;html=1;" vertex="1" parent="1">
          <mxGeometry x="340" y="600" width="120" height="60" as="geometry" />
        </mxCell>
        <mxCell id="X4VVf6SY0vySNThB5lVw-47" style="edgeStyle=orthogonalEdgeStyle;rounded=0;orthogonalLoop=1;jettySize=auto;html=1;entryX=0.5;entryY=0;entryDx=0;entryDy=0;endArrow=ERzeroToOne;endFill=0;startArrow=ERoneToMany;startFill=0;" edge="1" parent="1" source="X4VVf6SY0vySNThB5lVw-20" target="X4VVf6SY0vySNThB5lVw-19">
          <mxGeometry relative="1" as="geometry">
            <mxPoint x="340" y="580" as="targetPoint" />
          </mxGeometry>
        </mxCell>
        <mxCell id="X4VVf6SY0vySNThB5lVw-20" value="ArmiesGroups" style="rounded=0;whiteSpace=wrap;html=1;" vertex="1" parent="1">
          <mxGeometry x="160" y="550" width="120" height="60" as="geometry" />
        </mxCell>
        <mxCell id="X4VVf6SY0vySNThB5lVw-53" style="edgeStyle=orthogonalEdgeStyle;rounded=0;orthogonalLoop=1;jettySize=auto;html=1;entryX=0.833;entryY=1;entryDx=0;entryDy=0;entryPerimeter=0;endArrow=ERmandOne;endFill=0;startArrow=ERoneToMany;startFill=0;exitX=1;exitY=0.5;exitDx=0;exitDy=0;" edge="1" parent="1" source="X4VVf6SY0vySNThB5lVw-19" target="X4VVf6SY0vySNThB5lVw-1">
          <mxGeometry relative="1" as="geometry">
            <mxPoint x="450" y="680" as="sourcePoint" />
            <Array as="points">
              <mxPoint x="490" y="630" />
              <mxPoint x="490" y="400" />
              <mxPoint x="440" y="400" />
            </Array>
          </mxGeometry>
        </mxCell>
        <mxCell id="X4VVf6SY0vySNThB5lVw-121" style="edgeStyle=orthogonalEdgeStyle;rounded=0;orthogonalLoop=1;jettySize=auto;html=1;entryX=1;entryY=0.5;entryDx=0;entryDy=0;endArrow=ERzeroToOne;endFill=0;startArrow=ERmandOne;startFill=0;exitX=1;exitY=0.5;exitDx=0;exitDy=0;" edge="1" parent="1" source="X4VVf6SY0vySNThB5lVw-120" target="X4VVf6SY0vySNThB5lVw-4">
          <mxGeometry relative="1" as="geometry" />
        </mxCell>
        <mxCell id="X4VVf6SY0vySNThB5lVw-122" style="edgeStyle=orthogonalEdgeStyle;rounded=0;orthogonalLoop=1;jettySize=auto;html=1;entryX=0.75;entryY=0;entryDx=0;entryDy=0;endArrow=ERmandOne;endFill=0;startArrow=ERmandOne;startFill=0;" edge="1" parent="1" source="X4VVf6SY0vySNThB5lVw-120" target="X4VVf6SY0vySNThB5lVw-1">
          <mxGeometry relative="1" as="geometry" />
        </mxCell>
        <mxCell id="X4VVf6SY0vySNThB5lVw-124" style="edgeStyle=orthogonalEdgeStyle;rounded=0;orthogonalLoop=1;jettySize=auto;html=1;entryX=0.5;entryY=0;entryDx=0;entryDy=0;endArrow=ERzeroToOne;endFill=0;startArrow=ERmandOne;startFill=0;" edge="1" parent="1" source="X4VVf6SY0vySNThB5lVw-120" target="X4VVf6SY0vySNThB5lVw-2">
          <mxGeometry relative="1" as="geometry" />
        </mxCell>
        <mxCell id="X4VVf6SY0vySNThB5lVw-120" value="PoliticsStates" style="rounded=0;whiteSpace=wrap;html=1;" vertex="1" parent="1">
          <mxGeometry x="530" y="230" width="120" height="60" as="geometry" />
        </mxCell>
      </root>
    </mxGraphModel>
  </diagram>
</mxfile>
